<?xml version="1.0" encoding="UTF-8"?>
<!DOCTYPE svg PUBLIC "-//W3C//DTD SVG 1.1//EN" "http://www.w3.org/Graphics/SVG/1.1/DTD/svg11.dtd">
<!-- Creator: CorelDRAW 2021 (64-Bit) -->
<svg xmlns="http://www.w3.org/2000/svg" xml:space="preserve" width="808px" height="974px" version="1.1" style="shape-rendering:geometricPrecision; text-rendering:geometricPrecision; image-rendering:optimizeQuality; fill-rule:evenodd; clip-rule:evenodd"
viewBox="0 0 49.19 59.31"
 xmlns:xlink="http://www.w3.org/1999/xlink"
 xmlns:xodm="http://www.corel.com/coreldraw/odm/2003">
 <defs>
  <style type="text/css">
   <![CDATA[
    .fil0 {fill:white}
   ]]>
  </style>
 </defs>
 <g id="Layer_x0020_1">
  <metadata id="CorelCorpID_0Corel-Layer"/>
  <path class="fil0" d="M18.29 24.72c-0.53,-1.86 -0.8,-3.58 -0.8,-5.13 0,-1.9 0.43,-3.49 1.28,-4.78 1.06,-1.6 2.58,-2.4 4.58,-2.4 1.49,0 2.75,0.53 3.78,1.6 1.39,1.41 2.08,3.39 2.08,5.96 0,1.7 -0.29,3.53 -0.89,5.49 -0.59,1.96 -1.38,3.71 -2.37,5.25 -1.11,1.73 -2.01,2.6 -2.7,2.6 -0.66,0 -1.6,-1.11 -2.83,-3.33 -0.89,-1.64 -1.61,-3.39 -2.13,-5.26zm5.18 11.34c1.46,0 2.7,0.55 3.74,1.63 1.03,1.07 1.55,2.32 1.55,3.75 0,1.49 -0.54,2.77 -1.6,3.85 -1.07,1.07 -2.34,1.61 -3.83,1.61 -1.45,0 -2.7,-0.49 -3.73,-1.48 -1.12,-1.07 -1.68,-2.38 -1.68,-3.95 0,-1.46 0.5,-2.68 1.48,-3.68 1.1,-1.15 2.46,-1.73 4.07,-1.73zm-20.85 20.41c1.76,1.89 4.04,2.84 6.86,2.84l20.31 0c2.76,0 5.19,-0.35 7.29,-1.07 2.11,-0.73 4.02,-1.84 5.78,-3.35 0.98,-0.86 1.96,-1.88 2.91,-3.07 1.17,-1.62 2.02,-3.31 2.59,-5.07 0.56,-1.77 0.83,-3.58 0.83,-5.4 0,-1.55 -0.2,-3.01 -0.59,-4.41 -0.4,-1.4 -1,-2.7 -1.77,-3.93 -1.02,-1.56 -2,-2.44 -3.33,-3.65l-1.16 -0.72 -1.28 -0.92c1.7,-2.28 2.71,-4.99 2.99,-8.13 0.06,-0.45 0.09,-1.07 0.09,-1.87 0,-2.21 -0.41,-4.29 -1.21,-6.26 -0.82,-1.96 -1.98,-3.72 -3.5,-5.27 -1.51,-1.55 -3.33,-2.85 -5.45,-3.88 -2.12,-1.05 -4.53,-1.73 -7.21,-2.08 -1.25,-0.15 -2.45,-0.23 -3.59,-0.23l-13.54 0c-1.75,0 -3.36,0.42 -4.83,1.29 -1.45,0.86 -2.62,2.05 -3.49,3.56 -0.88,1.51 -1.32,3.16 -1.32,4.94l0 39.08c0,3.17 0.87,5.69 2.62,7.6z"/>
 </g>
</svg>
